<svg xmlns="http://www.w3.org/2000/svg" viewBox="0 0 64 64">
  <rect width="64" height="64" rx="12" fill="#0E1114"/>
  <g stroke="#D9772E" stroke-width="3" stroke-linecap="round" stroke-linejoin="round" fill="none">
    <path d="M45 55 V45 h5 a1.8 1.8 0 0 0 1.5-2.8 L47 33.5 C48 21.5 39.5 11 27.5 11 16.5 11 9 19.5 9 30 c0 5.5 2 9 4.5 11.5 V55"/>
  </g>
  <g fill="#D9772E">
    <!-- ingranaggio grande: denti come raggi spessi -->
    <g transform="translate(26,30)">
      <g>
        <rect x="-2.1" y="-12.2" width="4.2" height="4.6" rx="1"/>
        <rect x="-2.1" y="7.6" width="4.2" height="4.6" rx="1"/>
        <rect x="-12.2" y="-2.1" width="4.6" height="4.2" rx="1"/>
        <rect x="7.6" y="-2.1" width="4.6" height="4.2" rx="1"/>
        <g transform="rotate(45)">
          <rect x="-2.1" y="-12.2" width="4.2" height="4.6" rx="1"/>
          <rect x="-2.1" y="7.6" width="4.2" height="4.6" rx="1"/>
          <rect x="-12.2" y="-2.1" width="4.6" height="4.2" rx="1"/>
          <rect x="7.6" y="-2.1" width="4.6" height="4.2" rx="1"/>
        </g>
      </g>
      <circle r="8.4" fill="none" stroke="#D9772E" stroke-width="3.4"/>
      <circle r="2.6" fill="#0E1114"/>
    </g>
    <!-- ingranaggio piccolo -->
    <g transform="translate(40,18.5)">
      <g>
        <rect x="-1.5" y="-7.6" width="3" height="3.2" rx=".8"/>
        <rect x="-1.5" y="4.4" width="3" height="3.2" rx=".8"/>
        <rect x="-7.6" y="-1.5" width="3.2" height="3" rx=".8"/>
        <rect x="4.4" y="-1.5" width="3.2" height="3" rx=".8"/>
        <g transform="rotate(45)">
          <rect x="-1.5" y="-7.6" width="3" height="3.2" rx=".8"/>
          <rect x="-1.5" y="4.4" width="3" height="3.2" rx=".8"/>
          <rect x="-7.6" y="-1.5" width="3.2" height="3" rx=".8"/>
          <rect x="4.4" y="-1.5" width="3.2" height="3" rx=".8"/>
        </g>
      </g>
      <circle r="5" fill="none" stroke="#D9772E" stroke-width="3"/>
      <circle r="1.5" fill="#0E1114"/>
    </g>
  </g>
</svg>
